<?xml version="1.0" standalone="no"?>
<!DOCTYPE svg PUBLIC "-//W3C//DTD SVG 20010904//EN"
 "http://www.w3.org/TR/2001/REC-SVG-20010904/DTD/svg10.dtd">
<svg version="1.0" xmlns="http://www.w3.org/2000/svg"
 width="640.000000pt" height="960.000000pt" viewBox="0 0 640.000000 960.000000"
 preserveAspectRatio="xMidYMid meet">

<g transform="translate(0.000000,960.000000) scale(0.100000,-0.100000)"
fill="#000000" stroke="none">
<path d="M0 6985 l0 -755 26 -6 c14 -4 56 -3 93 0 76 8 121 1 121 -19 0 -18
-56 -39 -110 -41 -25 0 -64 -2 -87 -3 l-43 -1 0 -39 0 -40 87 0 c68 0 89 -3
95 -15 6 -11 24 -16 53 -16 24 0 46 -4 50 -9 3 -6 13 -9 23 -9 25 2 92 -12 92
-19 0 -12 -36 -32 -58 -33 -13 0 -32 -9 -44 -20 -17 -15 -31 -18 -71 -15 -28
2 -54 10 -58 17 -5 7 -9 8 -9 2 0 -13 -81 -54 -108 -54 -11 0 -27 -3 -36 -6
-14 -6 -16 -127 -16 -1275 l0 -1269 29 0 c38 0 319 44 446 70 55 12 119 24
142 27 24 3 41 9 38 13 -8 12 41 29 56 19 20 -12 39 -11 36 3 -1 6 14 15 33
19 19 3 43 10 53 14 12 5 17 3 17 -9 0 -27 25 -29 87 -7 49 18 104 30 248 55
11 2 85 13 165 26 80 12 158 28 173 37 16 8 31 12 34 9 4 -3 0 -6 -7 -6 -7 0
-11 -2 -8 -5 2 -3 37 4 78 16 40 11 89 19 108 17 33 -3 34 -4 38 -56 3 -37 -1
-60 -12 -77 -14 -22 -14 -24 5 -34 16 -9 19 -18 15 -54 -3 -23 -9 -55 -14 -72
-5 -16 -16 -64 -25 -106 -19 -93 -28 -102 -158 -165 -72 -34 -95 -49 -85 -56
10 -7 9 -8 -5 -4 -18 6 -187 -70 -187 -84 0 -4 -12 -11 -26 -14 -30 -8 -174
-113 -174 -127 0 -5 -6 -9 -13 -9 -20 0 -55 -42 -59 -70 -2 -20 -9 -25 -34
-26 -27 0 -81 -31 -131 -74 -7 -5 -17 -10 -24 -10 -6 0 -33 -12 -58 -28 -25
-15 -57 -32 -71 -38 -14 -6 -56 -25 -95 -42 -38 -17 -122 -46 -185 -63 -63
-17 -141 -40 -174 -50 -32 -10 -81 -21 -110 -24 -28 -4 -72 -11 -98 -17 l-48
-10 0 -58 c0 -44 4 -59 16 -64 30 -12 80 -5 149 19 39 14 84 25 100 25 43 0
238 64 273 89 17 12 40 21 52 21 25 0 72 23 89 44 8 9 31 21 53 27 27 7 45 20
56 40 10 17 25 29 37 29 29 0 65 28 65 51 0 13 7 19 21 19 30 0 59 18 68 42 4
12 23 26 42 32 19 6 38 21 44 34 5 12 18 22 28 22 24 0 67 29 67 46 0 8 9 14
20 14 29 0 82 29 75 40 -4 6 1 10 11 10 23 0 104 41 99 50 -2 4 13 12 35 19
39 12 76 39 66 49 -3 2 -12 0 -19 -6 -10 -9 -14 -8 -14 3 0 8 2 13 5 11 2 -3
15 -1 29 5 16 6 22 6 18 -1 -12 -19 24 -10 52 14 15 13 38 26 49 30 12 4 33
18 46 31 23 22 31 24 94 21 38 -3 105 -14 149 -26 305 -81 644 -111 1265 -113
393 -2 538 2 785 23 72 6 166 13 210 15 44 3 94 7 110 11 17 3 64 7 105 9 41
2 134 9 205 15 508 44 1394 51 1788 14 l57 -5 0 54 0 54 -422 6 c-792 13
-1119 7 -1538 -29 -96 -8 -227 -19 -290 -24 -63 -5 -211 -14 -329 -19 -142 -7
-217 -14 -221 -22 -5 -6 -9 -7 -11 -2 -2 6 -111 13 -259 17 -306 7 -747 37
-769 50 -4 3 -67 11 -142 20 -242 28 -485 85 -553 129 -30 20 -34 47 -24 177
12 176 19 255 23 275 2 11 4 23 4 26 1 4 18 1 39 -6 59 -20 261 -63 327 -69
52 -4 55 -4 25 5 -19 6 -69 15 -110 20 -41 5 -84 13 -95 18 -11 5 -40 14 -65
21 -51 13 -110 47 -110 61 0 6 4 8 9 5 5 -4 11 -3 13 1 1 5 24 18 51 31 43 21
56 23 140 17 50 -4 144 -16 207 -26 63 -11 196 -24 295 -29 99 -5 194 -11 210
-14 17 -3 98 -11 180 -16 477 -32 716 -42 1115 -45 245 -1 474 -5 510 -9 102
-10 465 -34 695 -46 320 -17 413 -26 441 -44 22 -15 26 -15 50 1 23 15 36 15
127 5 56 -6 143 -14 192 -17 50 -2 134 -7 188 -10 l97 -6 0 637 c0 628 0 637
-21 670 -11 19 -27 34 -35 34 -8 0 -27 18 -43 40 -33 45 -58 68 -111 97 -43
24 -153 63 -179 63 -28 0 -42 23 -35 59 7 32 8 32 48 26 22 -4 88 -18 146 -31
57 -14 109 -23 116 -20 14 6 40 164 28 176 -5 4 -49 18 -99 30 -195 47 -254
62 -365 97 -63 20 -124 44 -135 53 -11 10 -40 29 -65 43 -39 23 -54 26 -98 20
-45 -5 -53 -3 -59 13 -4 11 -33 45 -66 78 l-58 59 -40 -13 c-64 -21 -67 -10
-36 127 15 65 32 149 37 186 6 38 17 86 24 107 12 36 8 118 -8 160 -17 44 -33
184 -25 218 7 30 5 40 -10 52 -17 15 -45 87 -91 240 -53 175 -106 239 -215
260 -127 24 -260 5 -480 -69 -49 -16 -148 -44 -218 -61 l-129 -32 -43 31 c-50
36 -114 61 -157 61 -53 0 -125 -46 -184 -119 l-56 -68 -111 -17 c-123 -18
-344 -39 -592 -56 -186 -13 -380 -35 -435 -50 -40 -11 -80 -50 -80 -79 0 -10
-15 -25 -34 -34 -48 -22 -82 -86 -111 -204 -34 -140 -44 -235 -32 -317 7 -46
6 -70 -1 -75 -5 -3 -11 -26 -13 -51 -3 -29 -11 -50 -23 -59 -23 -17 -63 -107
-77 -171 -7 -33 -18 -53 -38 -68 -21 -15 -30 -32 -34 -67 -4 -25 -12 -56 -19
-68 -7 -12 -13 -27 -14 -34 -1 -7 -9 -42 -19 -78 -9 -36 -13 -70 -10 -76 4 -6
0 -16 -9 -22 -9 -7 -18 -26 -20 -44 -3 -18 -7 -37 -11 -43 -3 -5 -1 -19 5 -30
6 -12 7 -20 1 -20 -18 0 -40 -104 -45 -215 -3 -60 -10 -130 -15 -155 -23 -107
-31 -154 -31 -185 0 -19 -5 -46 -11 -62 -28 -75 -61 -321 -63 -469 -1 -127 -4
-155 -18 -170 -24 -28 -33 -71 -17 -90 9 -10 9 -18 2 -22 -6 -4 -12 -33 -15
-64 -3 -32 -7 -61 -11 -64 -3 -3 -17 2 -31 13 -26 19 -37 75 -16 88 5 3 10 16
10 28 0 45 -77 224 -131 307 -67 101 -199 254 -236 272 -29 14 -30 16 -74 111
-17 37 -31 67 -32 67 -1 0 0 -63 1 -141 4 -146 -2 -209 -19 -209 -6 0 -7 9 -3
23 12 36 13 66 3 73 -5 3 -9 17 -8 32 l1 27 8 -25 c7 -22 8 -21 9 13 1 32 -12
70 -29 87 -3 3 -6 14 -8 25 l-4 20 16 -20 c13 -18 14 -13 11 59 -5 83 -10 100
-25 76 -13 -20 -12 -33 0 -25 6 3 10 0 10 -7 0 -22 -76 -88 -101 -88 l-24 0
26 23 c30 25 54 80 43 98 -4 7 -3 10 4 5 14 -9 23 8 24 44 1 17 5 30 10 30 5
0 6 10 2 22 -6 20 -5 21 9 10 21 -18 33 3 13 24 -18 18 -21 34 -6 34 6 0 10
-5 10 -12 0 -6 3 -9 6 -5 3 3 0 21 -7 40 -6 19 -9 43 -5 53 11 28 15 204 5
204 -12 0 -11 48 1 107 15 70 32 219 34 288 1 54 3 60 23 63 55 8 69 92 29
178 -13 28 -29 55 -35 58 -16 10 -13 62 5 80 9 10 25 70 40 153 14 76 29 147
34 158 5 11 21 61 35 110 57 192 79 261 96 295 40 78 92 207 99 243 8 39 -5
61 -21 36 -4 -7 -11 -10 -15 -6 -4 4 -2 13 4 19 7 7 12 30 12 53 0 47 34 123
79 179 43 53 48 79 22 112 -12 15 -21 34 -21 43 -1 32 -44 69 -94 81 -25 5
-67 0 -153 -21 -112 -27 -131 -29 -383 -31 l-265 -3 -16 60 c-38 141 -97 226
-202 289 -36 22 -73 53 -82 69 -15 24 -22 28 -46 23 -16 -3 -29 -1 -29 4 0 5
-26 14 -57 20 -32 6 -129 27 -215 46 -86 19 -162 34 -167 34 -8 0 -11 -232
-11 -755z m1605 -244 c-8 -13 -35 -15 -35 -2 0 5 8 11 18 13 21 5 26 2 17 -11z
m3470 -57 c-38 -14 -86 -34 -106 -45 -40 -21 -70 -26 -53 -9 17 17 178 80 204
79 15 0 -2 -10 -45 -25z m105 -22 c0 -4 -9 -13 -20 -20 -19 -12 -20 -11 -8 8
13 20 28 27 28 12z m-50 -12 c0 -5 -9 -10 -21 -10 -11 0 -17 5 -14 10 3 6 13
10 21 10 8 0 14 -4 14 -10z m-55 -30 c4 -6 -5 -10 -20 -10 -15 0 -24 4 -20 10
3 6 12 10 20 10 8 0 17 -4 20 -10z m-3710 -10 c-3 -5 -15 -10 -26 -10 -11 0
-17 5 -14 10 3 6 15 10 26 10 11 0 17 -4 14 -10z m217 -36 c-9 -16 -10 -16
-21 4 -8 15 -8 21 2 25 19 7 30 -9 19 -29z m3408 32 c0 -3 -4 -8 -10 -11 -5
-3 -10 -1 -10 4 0 6 5 11 10 11 6 0 10 -2 10 -4z m146 -32 c-22 -21 -30 -24
-36 -13 -12 19 -2 31 21 24 11 -4 19 -2 19 4 0 6 6 11 12 11 7 0 0 -12 -16
-26z m-317 12 c-2 -2 -15 -9 -29 -15 -24 -11 -24 -11 -6 3 16 13 49 24 35 12z
m225 -34 c-18 -14 -18 -14 4 -9 26 6 52 -1 52 -14 0 -4 -18 -6 -41 -3 -26 3
-39 1 -34 -5 7 -12 -22 -20 -79 -24 -23 -1 -41 3 -43 10 -3 7 6 11 24 11 50
-1 63 2 63 13 0 6 -7 9 -15 5 -8 -3 -15 -2 -15 3 0 16 13 20 30 9 15 -10 22
-7 42 15 13 14 25 21 27 15 2 -6 -5 -18 -15 -26z m146 18 c0 -5 -10 -10 -22
-9 -22 0 -22 1 -3 9 11 5 21 9 23 9 1 1 2 -3 2 -9z m-320 -18 c0 -4 -9 -8 -20
-9 -11 -1 -18 2 -15 8 7 11 35 12 35 1z m277 -18 c-3 -3 -12 -4 -19 -1 -8 3
-5 6 6 6 11 1 17 -2 13 -5z m-503 -28 c-11 -8 -34 -17 -50 -21 -28 -6 -28 -5
6 13 42 24 74 29 44 8z m153 8 c-3 -3 -12 -4 -19 -1 -8 3 -5 6 6 6 11 1 17 -2
13 -5z m333 -4 c0 -5 -4 -10 -10 -10 -5 0 -10 5 -10 10 0 6 5 10 10 10 6 0 10
-4 10 -10z m60 -14 c0 -11 -19 -15 -25 -6 -3 5 1 10 9 10 9 0 16 -2 16 -4z
m-335 -28 c6 -4 2 -8 -7 -8 -10 0 -18 7 -18 17 0 9 3 12 8 7 4 -5 12 -12 17
-16z m-3451 -22 c29 -60 17 -72 -34 -34 -33 24 -36 32 -17 53 19 23 34 17 51
-19z m3263 18 c-3 -3 -12 -4 -19 -1 -8 3 -5 6 6 6 11 1 17 -2 13 -5z m113 -6
c0 -6 7 -20 17 -30 21 -24 4 -23 -25 2 -13 11 -21 24 -17 30 8 14 25 13 25 -2z
m40 -8 c0 -5 -4 -10 -10 -10 -5 0 -10 5 -10 10 0 6 5 10 10 10 6 0 10 -4 10
-10z m75 -18 c-3 -3 -11 0 -18 7 -9 10 -8 11 6 5 10 -3 15 -9 12 -12z m80 8
c3 -5 -3 -10 -14 -10 -12 0 -21 5 -21 10 0 6 6 10 14 10 8 0 18 -4 21 -10z
m260 0 c-3 -5 -10 -10 -16 -10 -5 0 -9 5 -9 10 0 6 7 10 16 10 8 0 12 -4 9
-10z m-756 -10 c-9 -5 -46 -14 -83 -19 -36 -5 -71 -12 -78 -16 -7 -4 -4 1 6 9
11 9 36 16 55 17 20 1 47 5 61 9 14 4 32 8 40 9 12 0 12 -1 -1 -9z m81 -10 c0
-14 -7 -20 -22 -20 -20 0 -21 1 -3 20 10 11 20 20 22 20 1 0 3 -9 3 -20z m133
0 c7 -6 23 -19 37 -29 33 -25 22 -34 -21 -19 -23 9 -35 20 -36 36 -3 24 2 27
20 12z m77 -10 c0 -5 12 -10 28 -10 22 0 24 -2 12 -11 -12 -9 -11 -10 8 -6 12
3 22 1 22 -4 0 -5 -6 -9 -12 -9 -7 0 -24 -3 -37 -7 -17 -4 -22 -3 -17 5 4 7 3
12 -1 12 -5 0 -14 9 -21 20 -10 17 -10 20 3 20 8 0 15 -4 15 -10z m-150 -15
c0 -18 26 -20 34 -2 4 8 5 7 5 -3 -2 -28 1 -40 10 -40 15 0 79 -44 85 -57 6
-14 -6 -10 -84 31 -73 37 -79 43 -73 66 6 23 23 27 23 5z m-360 -11 c-56 -17
-64 -17 -25 1 17 8 39 14 50 14 11 0 0 -7 -25 -15z m295 -15 c-4 -5 3 -9 13
-9 25 0 37 -27 14 -33 -13 -4 -12 -5 4 -6 12 0 27 -8 34 -16 7 -8 19 -15 27
-15 7 0 17 -8 20 -17 4 -9 20 -30 37 -46 30 -28 30 -29 4 -13 -15 9 -34 16
-42 16 -9 0 -13 6 -10 14 6 15 -29 32 -45 21 -5 -3 -13 0 -16 6 -4 5 -14 8
-22 5 -40 -16 -120 62 -92 88 7 7 10 7 7 1 -3 -5 0 -16 8 -23 8 -7 14 -10 14
-6 0 4 9 -1 20 -11 21 -19 42 -13 22 7 -15 15 -16 62 -2 53 6 -4 8 -11 5 -16z
m535 0 c0 -13 -24 -11 -45 4 -16 13 -15 14 13 9 18 -2 32 -8 32 -13z m-725 1
c-3 -5 -14 -10 -23 -9 -14 0 -13 2 3 9 27 11 27 11 20 0z m-70 -20 c3 -5 -1
-10 -10 -10 -9 0 -13 5 -10 10 3 6 8 10 10 10 2 0 7 -4 10 -10z m671 1 c-5 -8
-56 -3 -56 5 0 2 14 4 31 4 16 0 28 -4 25 -9z m-534 -19 c-24 -8 -11 -24 16
-19 22 4 30 0 47 -26 11 -18 39 -41 62 -52 24 -11 43 -27 43 -34 0 -12 3 -12
12 -3 16 16 29 15 22 -2 -4 -11 10 -17 53 -26 76 -16 114 -28 90 -29 -10 -1
-16 -4 -14 -8 8 -13 -56 -8 -80 5 -28 16 -75 15 -92 0 -11 -10 -14 -10 -18 0
-3 6 -11 12 -19 12 -9 0 -24 5 -35 11 -19 10 -20 12 -4 29 16 18 16 18 -4 13
-14 -4 -23 1 -28 13 -4 11 -16 28 -26 39 -11 11 -17 15 -13 8 3 -6 -2 -17 -11
-23 -16 -10 -16 -10 3 -5 14 4 24 0 28 -10 4 -10 -1 -15 -16 -15 -17 0 -18 -3
-8 -14 6 -8 19 -12 28 -9 9 3 14 3 10 -2 -4 -4 3 -16 15 -26 12 -10 17 -18 10
-19 -14 0 -75 32 -84 44 -4 5 -11 6 -17 2 -5 -3 -12 1 -16 9 -8 21 -29 19 -22
-2 5 -15 4 -15 -9 1 -8 11 -15 26 -15 34 0 10 -7 12 -23 8 -14 -3 -32 1 -43 9
-16 13 -17 16 -4 25 19 13 30 13 30 0 0 -5 9 -10 21 -10 11 0 17 5 14 10 -4 6
-12 8 -18 5 -7 -3 -2 2 11 11 12 9 22 22 22 29 0 7 7 15 15 19 8 3 15 1 15 -3
0 -5 -6 -12 -12 -14 -7 -3 1 -5 17 -5 17 0 24 2 17 5 -10 4 -9 8 5 18 10 7 22
11 27 7 6 -3 5 -7 -2 -10z m443 8 c3 -5 2 -10 -4 -10 -5 0 -13 5 -16 10 -3 6
-2 10 4 10 5 0 13 -4 16 -10z m-635 -10 c-20 -13 -33 -13 -25 0 3 6 14 10 23
10 15 0 15 -2 2 -10z m788 3 c-10 -2 -28 -2 -40 0 -13 2 -5 4 17 4 22 1 32 -1
23 -4z m-718 -28 c-7 -9 -15 -13 -18 -10 -3 2 1 11 8 20 7 9 15 13 18 10 3 -2
-1 -11 -8 -20z m-125 -8 c6 -5 3 -7 -7 -3 -11 3 -18 0 -18 -7 0 -8 -4 -7 -10
3 -9 15 9 36 20 22 3 -4 10 -11 15 -15z m632 17 c-3 -3 -12 -4 -19 -1 -8 3 -5
6 6 6 11 1 17 -2 13 -5z m-569 -27 c2 -9 -3 -17 -10 -17 -8 0 -14 9 -15 21 -2
24 20 20 25 -4z m762 3 c0 -5 -14 -10 -31 -10 -17 0 -28 4 -24 10 3 6 17 10
31 10 13 0 24 -4 24 -10z m-920 -10 c0 -5 -4 -10 -10 -10 -5 0 -10 5 -10 10 0
6 5 10 10 10 6 0 10 -4 10 -10z m842 -2 c-9 -9 -15 -9 -24 0 -9 9 -7 12 12 12
19 0 21 -3 12 -12z m-917 -18 c3 -5 1 -10 -4 -10 -6 0 -11 5 -11 10 0 6 2 10
4 10 3 0 8 -4 11 -10z m165 0 c0 -5 -8 -10 -17 -10 -15 0 -16 2 -3 10 19 12
20 12 20 0z m-3748 -12 c20 1 39 -2 42 -7 3 -5 -9 -9 -28 -8 -19 0 -41 -6 -50
-16 -26 -26 -125 -18 -108 9 11 17 65 33 87 26 11 -3 37 -5 57 -4z m3815 6
c-3 -3 -12 -4 -19 -1 -8 3 -5 6 6 6 11 1 17 -2 13 -5z m-137 -14 c0 -5 -8 -10
-17 -10 -15 0 -16 2 -3 10 19 12 20 12 20 0z m713 -1 c25 0 21 -17 -5 -21 -26
-3 -68 12 -68 26 0 4 12 5 28 2 15 -4 35 -7 45 -7z m-657 -16 c15 -9 29 -12
32 -7 4 5 16 9 27 8 11 -1 32 -2 47 -3 15 0 39 -12 54 -24 l28 -24 -27 -5
c-15 -3 -27 -1 -27 3 0 5 5 9 12 9 8 0 8 3 3 9 -12 12 -83 17 -111 7 -12 -4
-33 0 -50 9 -16 8 -22 15 -14 15 13 0 13 1 0 10 -8 5 -11 10 -7 10 4 0 19 -8
33 -17z m-136 -3 c0 -5 -8 -10 -17 -10 -15 0 -16 2 -3 10 19 12 20 12 20 0z
m80 -10 c0 -5 -4 -10 -10 -10 -5 0 -10 5 -10 10 0 6 5 10 10 10 6 0 10 -4 10
-10z m855 -10 c3 -5 -1 -10 -9 -10 -8 0 -18 5 -21 10 -3 6 1 10 9 10 8 0 18
-4 21 -10z m-1018 -22 c-3 -8 -6 -5 -6 6 -1 11 2 17 5 13 3 -3 4 -12 1 -19z
m101 -7 c3 -8 -1 -12 -9 -9 -7 2 -15 10 -17 17 -3 8 1 12 9 9 7 -2 15 -10 17
-17z m77 -1 c10 -11 15 -20 12 -20 -14 0 -57 24 -57 32 0 15 27 8 45 -12z
m119 -20 c38 -39 20 -39 -22 0 -18 17 -27 30 -20 30 7 0 26 -14 42 -30z m-304
0 c8 -5 12 -11 9 -14 -3 -3 -14 1 -25 9 -21 16 -8 20 16 5z m425 0 c3 -5 1
-10 -4 -10 -6 0 -11 5 -11 10 0 6 2 10 4 10 3 0 8 -4 11 -10z m-568 -6 c-3 -3
-12 -4 -19 -1 -8 3 -5 6 6 6 11 1 17 -2 13 -5z m1061 -4 c6 0 12 -4 12 -10 0
-5 -9 -10 -20 -10 -11 0 -20 4 -20 9 0 5 -6 11 -12 14 -7 2 -4 3 7 1 11 -2 26
-4 33 -4z m222 6 c0 -9 -30 -14 -35 -6 -4 6 3 10 14 10 12 0 21 -2 21 -4z
m-910 -28 c9 -20 9 -21 -2 -7 -7 9 -20 18 -28 22 -12 4 -12 6 2 6 10 1 22 -9
28 -21z m830 12 c0 -5 -9 -10 -21 -10 -11 0 -17 5 -14 10 3 6 13 10 21 10 8 0
14 -4 14 -10z m-1165 -10 c-4 -6 -1 -18 7 -27 12 -15 11 -15 -9 -3 -20 13 -21
40 -1 40 5 0 6 -5 3 -10z m562 -4 c5 -8 19 -19 33 -25 l25 -10 -27 0 c-16 -1
-28 4 -28 10 0 5 -5 7 -12 3 -7 -5 -8 -3 -3 6 4 7 2 16 -6 21 -9 6 -10 9 -2 9
7 0 16 -6 20 -14z m-441 -23 c-7 -7 -26 7 -26 19 0 6 6 6 15 -2 9 -7 13 -15
11 -17z m1199 17 c-3 -5 -13 -10 -21 -10 -8 0 -14 5 -14 10 0 6 9 10 21 10 11
0 17 -4 14 -10z m-1417 -20 c7 -11 9 -20 4 -20 -10 0 -32 22 -32 32 0 15 15 8
28 -12z m608 5 l29 -15 -35 1 c-19 1 -42 -2 -51 -5 -10 -4 -20 -3 -24 3 -3 7
2 11 14 11 12 0 21 5 21 10 0 14 13 12 46 -5z m354 5 c0 -13 -19 -16 -59 -11
-30 4 -32 5 -13 10 37 9 72 10 72 1z m120 -6 c0 -2 -9 -4 -21 -4 -11 0 -18 4
-14 10 5 8 35 3 35 -6z m-317 -1 c4 -3 23 -7 42 -8 19 0 40 -6 45 -11 8 -8 -1
-10 -27 -9 -53 2 -104 16 -97 26 6 11 28 12 37 2z m267 -3 c0 -5 -15 -10 -32
-9 -31 1 -32 1 -8 9 35 11 40 11 40 0z m-1120 -21 c0 -6 -4 -7 -10 -4 -5 3
-10 11 -10 16 0 6 5 7 10 4 6 -3 10 -11 10 -16z m425 11 c3 -5 2 -10 -4 -10
-5 0 -13 5 -16 10 -3 6 -2 10 4 10 5 0 13 -4 16 -10z m820 -20 c3 -5 -3 -10
-15 -10 -12 0 -18 5 -15 10 3 6 10 10 15 10 5 0 12 -4 15 -10z m349 1 c3 -5
-1 -11 -9 -15 -9 -3 -15 0 -15 9 0 16 16 20 24 6z m33 -23 c-3 -7 -5 -2 -5 12
0 14 2 19 5 13 2 -7 2 -19 0 -25z m-1727 7 c20 -24 6 -28 -15 -5 -10 11 -13
20 -8 20 6 0 16 -7 23 -15z m1297 -10 c-4 -8 -11 -15 -17 -15 -7 0 -7 6 0 21
13 23 26 19 17 -6z m168 15 c3 -5 1 -10 -4 -10 -6 0 -11 5 -11 10 0 6 2 10 4
10 3 0 8 -4 11 -10z m-790 -10 c-3 -5 -18 -10 -33 -10 -21 0 -24 2 -12 10 20
13 53 13 45 0z m240 0 c4 -6 -6 -10 -22 -10 -22 0 -25 2 -13 10 19 12 27 12
35 0z m223 -5 c21 -4 32 -3 32 5 0 6 4 9 10 5 5 -3 6 -13 3 -21 -4 -12 -14
-14 -47 -8 -22 4 -51 7 -63 6 -13 -1 -23 2 -23 7 0 12 21 20 40 16 8 -2 30 -6
48 -10z m-713 -5 c8 -13 -5 -13 -25 0 -13 8 -13 10 2 10 9 0 20 -4 23 -10z
m295 0 c0 -5 -7 -6 -17 -3 -11 4 -14 3 -9 -5 4 -7 2 -12 -3 -12 -12 0 -14 13
-4 23 10 10 33 8 33 -3z m-132 -7 c-10 -2 -26 -2 -35 0 -10 3 -2 5 17 5 19 0
27 -2 18 -5z m662 -3 c0 -5 -14 -10 -31 -10 -17 0 -28 4 -24 10 3 6 17 10 31
10 13 0 24 -4 24 -10z m-1392 -23 c5 -24 -15 -21 -21 4 -3 13 -1 19 6 16 7 -2
13 -11 15 -20z m960 7 c12 -2 22 -9 22 -14 0 -6 -11 -8 -27 -3 -16 4 -44 7
-63 6 -19 0 -29 2 -22 4 6 3 10 8 8 12 -5 7 35 5 82 -5z m837 6 c-3 -5 -13
-10 -21 -10 -8 0 -14 5 -14 10 0 6 9 10 21 10 11 0 17 -4 14 -10z m-617 -7
c-10 -2 -28 -2 -40 0 -13 2 -5 4 17 4 22 1 32 -1 23 -4z m657 -3 c6 -10 -43
-78 -57 -79 -5 -1 -8 8 -8 19 0 13 7 20 20 20 15 0 20 7 20 25 0 25 14 33 25
15z m50 0 c-3 -5 -10 -10 -16 -10 -5 0 -9 5 -9 10 0 6 7 10 16 10 8 0 12 -4 9
-10z m-1805 -38 c0 -13 -3 -12 -15 4 -19 25 -19 40 0 24 8 -7 15 -20 15 -28z
m510 16 c0 -6 -6 -5 -15 2 -8 7 -15 14 -15 16 0 2 7 1 15 -2 8 -4 15 -11 15
-16z m510 12 c13 -9 13 -10 0 -9 -8 0 -24 4 -35 9 l-20 9 20 0 c11 0 27 -4 35
-9z m-919 -22 c21 -23 26 -47 7 -26 -26 27 -40 48 -33 48 4 0 16 -10 26 -22z
m657 15 c-10 -2 -28 -2 -40 0 -13 2 -5 4 17 4 22 1 32 -1 23 -4z m666 -14
c-27 -11 -44 -11 -44 0 0 11 40 20 54 12 5 -2 1 -8 -10 -12z m253 14 c-9 -2
-14 -9 -11 -15 4 -7 2 -8 -4 -4 -20 12 -13 26 11 25 17 -1 18 -2 4 -6z m-477
-19 c0 -2 -12 -4 -27 -4 -21 0 -24 3 -14 9 13 8 41 5 41 -5z m155 6 c-3 -5
-10 -10 -16 -10 -5 0 -9 5 -9 10 0 6 7 10 16 10 8 0 12 -4 9 -10z m-1155 -10
c0 -5 -4 -10 -10 -10 -5 0 -10 5 -10 10 0 6 5 10 10 10 6 0 10 -4 10 -10z
m1445 -9 c-6 -11 -45 -21 -45 -12 0 12 8 17 30 18 11 1 18 -2 15 -6z m-998 -7
c-3 -3 -12 -4 -19 -1 -8 3 -5 6 6 6 11 1 17 -2 13 -5z m320 0 c-3 -3 -12 -4
-19 -1 -8 3 -5 6 6 6 11 1 17 -2 13 -5z m96 -1 c-7 -2 -19 -2 -25 0 -7 3 -2 5
12 5 14 0 19 -2 13 -5z m-1198 -33 c10 -11 15 -20 11 -20 -4 0 -16 9 -28 20
-12 11 -17 20 -11 20 5 0 18 -9 28 -20z m1035 11 c0 -6 -17 -7 -37 -4 -52 8
-54 13 -5 13 23 0 42 -4 42 -9z m765 -11 c-7 -21 10 -29 18 -7 2 6 8 9 12 4
12 -10 -63 -77 -86 -77 -10 0 -20 3 -22 8 -7 11 11 52 24 52 6 0 9 -7 6 -15
-9 -21 11 -29 29 -11 14 14 14 16 0 16 -13 0 -14 4 -4 25 13 30 32 34 23 5z
m-1645 -10 l25 -20 -32 12 c-18 7 -33 16 -33 20 0 13 13 9 40 -12z m1550 10
c0 -5 -4 -10 -10 -10 -5 0 -10 5 -10 10 0 6 5 10 10 10 6 0 10 -4 10 -10z
m-50 -24 c0 -3 -4 -8 -10 -11 -5 -3 -10 -1 -10 4 0 6 5 11 10 11 6 0 10 -2 10
-4z m-527 -33 c-13 -2 -35 -2 -50 0 -16 2 -5 4 22 4 28 0 40 -2 28 -4z m470
-7 c4 -10 1 -13 -9 -9 -7 3 -14 9 -14 14 0 14 17 10 23 -5z m93 -5 c-3 -5 2
-8 11 -7 9 0 18 -5 20 -12 3 -7 -1 -10 -10 -7 -7 3 -20 -1 -27 -10 -11 -13
-10 -14 5 -9 12 5 16 4 11 -4 -4 -6 -22 -14 -41 -18 -20 -3 -38 -10 -41 -15
-3 -5 -11 -9 -17 -9 -7 0 -6 4 3 10 10 6 11 10 3 10 -23 0 -14 20 10 21 17 1
18 2 4 6 -14 4 -16 8 -6 19 6 7 16 11 23 7 22 -14 36 -11 36 8 0 10 5 19 11
19 5 0 8 -4 5 -9z m-1353 -36 c4 -8 23 -21 43 -30 20 -8 35 -17 33 -20 -9 -9
-79 19 -79 31 0 7 -8 18 -17 23 -16 9 -16 10 -2 11 9 0 19 -7 22 -15z m-223
-36 c0 -16 -28 3 -33 23 -5 19 -5 19 14 2 10 -9 19 -21 19 -25z m134 26 c5
-13 2 -14 -17 -4 -32 17 -33 19 -10 19 12 0 23 -7 27 -15z m1231 -5 c3 -5 -1
-10 -10 -10 -9 0 -13 5 -10 10 3 6 8 10 10 10 2 0 7 -4 10 -10z m-1540 -10 c3
-5 1 -10 -4 -10 -6 0 -11 5 -11 10 0 6 2 10 4 10 3 0 8 -4 11 -10z m595 -26
c39 -18 88 -53 122 -86 31 -31 67 -63 80 -72 16 -12 18 -16 7 -16 -9 0 -24 9
-34 20 -10 11 -26 22 -36 25 -11 4 -17 11 -14 16 4 5 -1 9 -9 9 -9 0 -15 5
-13 12 3 15 -99 85 -135 93 -15 4 -33 13 -40 22 -15 18 -17 19 72 -23z m166 9
c-8 -8 -36 5 -36 17 0 7 6 7 21 0 11 -7 18 -14 15 -17z m254 2 c5 -3 11 -1 15
5 3 5 40 9 83 9 l77 -2 -75 -9 c-121 -14 -164 -15 -182 -4 -10 6 -18 14 -18
17 0 7 85 -7 100 -16z m608 13 c-2 -7 2 -12 8 -11 6 1 11 -5 11 -13 0 -21 -34
-17 -40 5 -5 20 0 31 15 31 4 0 7 -6 6 -12z m-796 -39 c43 -31 27 -35 -17 -4
-21 14 -32 25 -25 25 6 0 25 -9 42 -21z m638 11 c0 -5 -7 -10 -16 -10 -8 0
-12 5 -9 10 3 6 10 10 16 10 5 0 9 -4 9 -10z m-1120 -10 c0 -13 -11 -13 -30 0
-12 8 -11 10 8 10 12 0 22 -4 22 -10z m1188 -18 c-11 -14 -10 -15 5 -9 12 4
17 3 15 -4 -2 -6 -7 -10 -11 -10 -4 1 -14 1 -22 1 -12 0 -13 4 -3 25 6 13 15
22 20 19 5 -3 3 -13 -4 -22z m-1640 -18 c-4 -3 -12 5 -18 18 -12 22 -12 22 6
6 10 -10 15 -20 12 -24z m612 -16 c0 -4 -7 -8 -15 -8 -8 0 -15 7 -15 15 0 8
-5 15 -11 15 -5 0 -7 5 -4 11 7 11 45 -16 45 -33z m-77 25 c-7 -2 -19 -2 -25
0 -7 3 -2 5 12 5 14 0 19 -2 13 -5z m146 -20 c49 -36 107 -93 94 -93 -5 0 -28
17 -51 38 -23 20 -56 47 -74 60 -18 12 -26 22 -19 22 8 0 30 -12 50 -27z m576
6 c15 -15 -17 -10 -45 7 l-25 15 30 -6 c17 -4 34 -11 40 -16z m245 12 c0 -5
-7 -11 -15 -15 -15 -5 -20 5 -8 17 9 10 23 9 23 -2z m-470 -12 c0 -5 4 -8 9
-4 5 3 13 0 16 -6 5 -7 -1 -9 -16 -7 -22 3 -40 28 -20 28 6 0 11 -5 11 -11z
m160 -11 c11 -7 8 -8 -10 -4 -14 3 -44 6 -67 6 -25 0 -43 5 -43 11 0 13 96 3
120 -13z m-846 -4 c3 -8 2 -12 -4 -9 -6 3 -10 10 -10 16 0 14 7 11 14 -7z
m646 1 c16 -19 0 -19 -26 0 -16 12 -16 14 -3 15 9 0 22 -7 29 -15z m300 5 c0
-5 -4 -10 -10 -10 -5 0 -10 5 -10 10 0 6 5 10 10 10 6 0 10 -4 10 -10z m-380
-10 c13 -8 13 -10 -2 -10 -9 0 -20 5 -23 10 -8 13 5 13 25 0z m620 -12 c0 -4
-9 -8 -20 -8 -11 0 -20 4 -20 9 0 6 9 9 20 8 11 -1 20 -5 20 -9z m50 2 c0 -5
-4 -10 -10 -10 -5 0 -10 5 -10 10 0 6 5 10 10 10 6 0 10 -4 10 -10z m-1093
-16 c-3 -3 -12 -4 -19 -1 -8 3 -5 6 6 6 11 1 17 -2 13 -5z m908 -10 c-9 -9
-18 -14 -21 -11 -9 9 6 27 22 27 13 0 13 -2 -1 -16z m62 -4 c1 -11 -4 -20 -13
-20 -16 0 -16 2 -8 24 8 22 19 20 21 -4z m-1547 -22 c0 -12 -6 -9 -26 13 -19
22 -19 22 4 8 12 -8 22 -17 22 -21z m720 12 c0 -5 -4 -10 -9 -10 -6 0 -13 5
-16 10 -3 6 1 10 9 10 9 0 16 -4 16 -10z m-376 -16 c3 -8 2 -12 -4 -9 -6 3
-10 10 -10 16 0 14 7 11 14 -7z m791 -15 c7 -7 0 -8 -20 -3 -16 3 -34 11 -40
17 -7 6 0 7 20 3 17 -4 35 -12 40 -17z m285 11 c0 -5 -4 -10 -10 -10 -5 0 -10
5 -10 10 0 6 5 10 10 10 6 0 10 -4 10 -10z m160 0 c0 -6 -10 -15 -22 -21 -50
-22 -98 -56 -91 -64 5 -4 3 -5 -3 -2 -7 4 -17 0 -24 -8 -7 -8 -19 -15 -27 -15
-7 0 -16 -7 -19 -15 -3 -8 -25 -17 -49 -21 -32 -4 -42 -10 -38 -20 3 -8 0 -14
-6 -14 -6 0 -11 5 -11 11 0 6 -7 9 -15 5 -10 -4 -15 1 -15 14 0 22 16 27 23 8
4 -9 8 -10 14 -2 4 6 25 14 46 18 21 4 35 11 32 17 -4 5 2 9 12 9 13 0 15 2 5
9 -10 6 -10 10 2 20 11 9 15 9 18 -1 4 -11 8 -11 21 0 9 8 14 19 11 26 -3 7 2
19 11 26 8 7 15 8 15 3 0 -5 9 -9 19 -9 11 0 17 5 14 10 -4 5 1 7 11 3 10 -4
24 -1 32 8 18 17 34 20 34 5z m-1306 -16 c3 -8 2 -12 -4 -9 -6 3 -10 10 -10
16 0 14 7 11 14 -7z m111 -4 c3 -6 -1 -7 -9 -4 -18 7 -21 14 -7 14 6 0 13 -4
16 -10z m984 -17 c-12 -15 -12 -16 4 -10 9 3 17 2 17 -4 0 -6 -8 -9 -17 -7
-24 4 -30 38 -8 38 15 0 16 -2 4 -17z m54 10 c-7 -2 -19 -2 -25 0 -7 3 -2 5
12 5 14 0 19 -2 13 -5z m-603 -22 c0 -5 -9 -7 -20 -4 -11 3 -20 7 -20 9 0 2 9
4 20 4 11 0 20 -4 20 -9z m231 -8 c12 -15 12 -16 -4 -10 -10 4 -23 7 -28 7 -5
0 -9 5 -9 10 0 16 26 12 41 -7z m-547 -2 c3 -4 -6 -6 -19 -3 -14 2 -25 6 -25
8 0 8 39 4 44 -5z m411 -1 c19 -8 19 -9 -2 -9 -12 -1 -25 4 -28 9 -7 12 2 12
30 0z m265 0 c0 -5 -4 -10 -10 -10 -5 0 -10 5 -10 10 0 6 5 10 10 10 6 0 10
-4 10 -10z m-100 -40 c0 -5 -4 -10 -10 -10 -5 0 -10 5 -10 10 0 6 5 10 10 10
6 0 10 -4 10 -10z m270 -10 c0 -5 -7 -10 -16 -10 -8 0 -12 5 -9 10 3 6 10 10
16 10 5 0 9 -4 9 -10z m-95 -10 c-3 -5 -10 -10 -16 -10 -5 0 -9 5 -9 10 0 6 7
10 16 10 8 0 12 -4 9 -10z m-65 -10 c0 -5 -8 -10 -17 -10 -15 0 -16 2 -3 10
19 12 20 12 20 0z m30 -70 c0 -5 -4 -10 -10 -10 -5 0 -10 5 -10 10 0 6 5 10
10 10 6 0 10 -4 10 -10z m-55 -10 c3 -5 -1 -10 -10 -10 -9 0 -13 5 -10 10 3 6
8 10 10 10 2 0 7 -4 10 -10z m-1760 -40 c13 -5 14 -9 5 -9 -8 0 -24 4 -35 9
-13 5 -14 9 -5 9 8 0 24 -4 35 -9z m230 -90 c22 -10 33 -19 25 -19 -8 0 -31 8
-50 19 -45 24 -28 24 25 0z m-1715 -10 c0 -5 -4 -10 -9 -10 -6 0 -13 5 -16 10
-3 6 1 10 9 10 9 0 16 -4 16 -10z m3035 0 c3 -5 1 -10 -4 -10 -6 0 -11 5 -11
10 0 6 2 10 4 10 3 0 8 -4 11 -10z m-1170 -50 c3 -6 -1 -7 -9 -4 -18 7 -21 14
-7 14 6 0 13 -4 16 -10z m-95 -30 c0 -5 -4 -10 -10 -10 -5 0 -10 5 -10 10 0 6
5 10 10 10 6 0 10 -4 10 -10z m180 -6 l25 -15 -25 7 c-14 3 -29 10 -34 15 -16
14 6 10 34 -7z m66 -30 c18 -14 18 -14 -6 -3 -31 14 -36 19 -24 19 6 0 19 -7
30 -16z m-68 -22 c-10 -2 -18 -8 -18 -13 0 -14 -17 -11 -23 5 -4 10 -1 13 9 9
7 -3 14 0 14 6 0 6 7 7 18 3 16 -6 16 -7 0 -10z m58 -36 c10 -8 17 -17 14 -19
-3 -3 -16 3 -30 13 -29 22 -14 27 16 6z m179 -6 c3 -6 -1 -7 -9 -4 -18 7 -21
14 -7 14 6 0 13 -4 16 -10z m-135 -10 c0 -5 -4 -10 -10 -10 -5 0 -10 5 -10 10
0 6 5 10 10 10 6 0 10 -4 10 -10z m35 0 l-20 -8 20 -7 c33 -11 49 -21 53 -33
2 -7 -1 -12 -8 -12 -6 0 -8 5 -5 10 3 6 0 10 -7 11 -23 1 -50 7 -55 13 -11 10
7 36 24 35 16 0 15 -1 -2 -9z m-213 -38 c-7 -2 -9 -9 -6 -14 4 -7 2 -8 -4 -4
-6 4 -9 13 -6 21 4 8 11 12 17 8 8 -5 7 -8 -1 -11z m348 -14 c18 1 21 -1 11
-7 -10 -6 -5 -11 20 -17 19 -4 41 -6 49 -5 8 2 12 0 8 -4 -15 -16 -76 -15 -92
0 -8 9 -18 16 -20 16 -23 2 -46 13 -46 21 0 5 10 6 23 2 12 -4 33 -7 47 -6z
m-110 -8 c0 -5 -2 -10 -4 -10 -3 0 -8 5 -11 10 -3 6 -1 10 4 10 6 0 11 -4 11
-10z m211 -55 c5 4 17 1 26 -4 11 -6 13 -11 5 -11 -7 0 -10 -5 -6 -12 5 -7 3
-8 -7 -2 -14 8 -18 9 -50 12 -9 1 -19 9 -22 17 -5 11 -1 12 19 4 14 -5 30 -7
35 -4z m104 -36 c5 -5 17 -9 27 -9 10 0 18 -4 18 -10 0 -18 -28 -11 -67 16
-29 20 -32 25 -13 19 14 -4 29 -11 35 -16z m199 -20 c34 -16 51 -26 38 -23
-13 3 -51 19 -85 35 -34 16 -51 27 -38 23 13 -3 52 -19 85 -35z m-814 21 c0
-5 -2 -10 -4 -10 -3 0 -8 5 -11 10 -3 6 -1 10 4 10 6 0 11 -4 11 -10z m570
-10 c0 -5 -12 -10 -27 -9 -25 0 -26 1 -8 9 27 12 35 12 35 0z m-486 -25 c3 -8
2 -15 -3 -15 -5 0 -14 7 -21 15 -10 12 -10 15 3 15 8 0 17 -7 21 -15z m63 -1
c-3 -3 -12 -4 -19 -1 -8 3 -5 6 6 6 11 1 17 -2 13 -5z m138 -4 c3 -6 -1 -7 -9
-4 -18 7 -21 14 -7 14 6 0 13 -4 16 -10z m420 -8 c-3 -3 -11 0 -18 7 -9 10 -8
11 6 5 10 -3 15 -9 12 -12z m1765 8 c0 -5 -2 -10 -4 -10 -3 0 -8 5 -11 10 -3
6 -1 10 4 10 6 0 11 -4 11 -10z m-2026 -9 c4 -5 -3 -7 -14 -4 -23 6 -26 13 -6
13 8 0 17 -4 20 -9z m-289 -12 c12 -19 -5 -23 -22 -6 -16 16 -16 17 -1 17 9 0
20 -5 23 -11z m65 1 c8 -5 11 -10 7 -10 -4 0 1 -10 12 -22 12 -13 33 -21 50
-21 17 0 32 -6 35 -14 3 -7 14 -13 25 -13 10 0 45 -13 76 -30 31 -16 63 -30
71 -30 8 0 33 -12 57 -26 51 -32 52 -33 45 -39 -3 -3 -18 1 -33 9 -16 8 -33
12 -38 9 -6 -3 -7 -1 -3 6 4 6 0 13 -11 17 -10 3 -26 10 -35 15 -26 13 -38 11
-32 -6 4 -8 2 -15 -3 -15 -9 0 -83 48 -83 54 0 7 40 -6 46 -15 3 -5 10 -9 15
-9 23 0 -30 40 -62 47 -31 6 -33 5 -20 -10 12 -15 11 -17 -3 -17 -9 0 -16 7
-16 16 0 10 -5 14 -16 10 -9 -3 -12 -2 -9 4 4 6 -8 13 -26 17 -19 3 -34 13
-36 25 -3 10 -9 18 -14 18 -4 0 -13 9 -19 20 -12 22 -4 25 20 10z m530 -7 c11
-10 20 -23 20 -30 0 -8 -10 -5 -25 9 -23 20 -32 38 -20 38 3 0 14 -8 25 -17z
m180 -3 c19 -11 31 -19 25 -19 -5 0 -26 8 -45 19 -19 11 -30 19 -25 19 6 0 26
-8 45 -19z m-565 0 c3 -6 -1 -7 -9 -4 -18 7 -21 14 -7 14 6 0 13 -4 16 -10z
m315 0 c0 -5 -5 -10 -11 -10 -5 0 -7 5 -4 10 3 6 8 10 11 10 2 0 4 -4 4 -10z
m170 -30 c10 0 11 -3 3 -11 -12 -12 -73 14 -73 31 0 5 12 2 28 -6 15 -7 34
-14 42 -14z m-550 4 c0 -8 -4 -12 -10 -9 -5 3 -10 10 -10 16 0 5 5 9 10 9 6 0
10 -7 10 -16z m147 0 c-3 -3 -12 -4 -19 -1 -8 3 -5 6 6 6 11 1 17 -2 13 -5z
m583 -16 c10 -6 7 -7 -10 -2 -14 3 -32 11 -40 16 -10 6 -7 7 10 2 14 -3 32
-11 40 -16z m-827 5 c-7 -2 -19 -2 -25 0 -7 3 -2 5 12 5 14 0 19 -2 13 -5z
m2260 0 c-7 -2 -19 -2 -25 0 -7 3 -2 5 12 5 14 0 19 -2 13 -5z m-2093 -13 c8
-5 11 -10 5 -10 -5 0 -17 5 -25 10 -8 5 -10 10 -5 10 6 0 17 -5 25 -10z m165
-10 c3 -5 -1 -10 -9 -10 -8 0 -18 5 -21 10 -3 6 1 10 9 10 8 0 18 -4 21 -10z
m355 0 c0 -5 7 -7 15 -4 8 4 15 1 15 -5 0 -12 -11 -14 -34 -5 -18 7 -22 24 -6
24 6 0 10 -4 10 -10z m273 -26 c50 -20 94 -39 97 -42 9 -9 -53 9 -95 27 -22
10 -57 24 -77 31 -37 11 -49 20 -28 20 6 0 52 -16 103 -36z m-703 -6 c0 -5 -9
-4 -20 2 -11 6 -20 12 -20 14 0 2 9 2 20 -1 11 -3 20 -9 20 -15z m555 -9 c15
-15 -18 -10 -45 6 l-25 15 30 -6 c17 -4 34 -11 40 -15z m-420 1 c3 -5 2 -10
-4 -10 -5 0 -13 5 -16 10 -3 6 -2 10 4 10 5 0 13 -4 16 -10z m1865 6 c0 -3 -4
-8 -10 -11 -5 -3 -10 -1 -10 4 0 6 5 11 10 11 6 0 10 -2 10 -4z m125 -6 c3 -5
1 -10 -4 -10 -6 0 -11 5 -11 10 0 6 2 10 4 10 3 0 8 -4 11 -10z m-1835 -15
c14 -8 21 -14 15 -14 -5 0 -21 6 -35 14 -14 8 -20 14 -15 14 6 0 21 -6 35 -14z
m1760 11 c0 -3 -4 -8 -10 -11 -5 -3 -10 -1 -10 4 0 6 5 11 10 11 6 0 10 -2 10
-4z m-1980 -16 c24 -15 7 -18 -20 -3 -14 7 -18 13 -10 13 8 0 22 -4 30 -10z
m543 -8 c-2 -7 4 -12 12 -12 8 0 15 -4 15 -8 0 -11 -58 -3 -66 9 -3 5 3 9 13
9 15 0 16 2 3 11 -12 8 -11 9 5 6 11 -2 19 -9 18 -15z m44 12 c-3 -3 -12 -4
-19 -1 -8 3 -5 6 6 6 11 1 17 -2 13 -5z m58 -24 c4 -6 -7 -10 -27 -9 -31 1
-32 1 -8 9 14 4 26 8 27 9 1 1 5 -3 8 -9z m-581 -6 c23 -9 20 -23 -4 -17 -11
3 -20 9 -20 14 0 11 3 11 24 3z m266 -40 c0 -2 -9 0 -20 6 -11 6 -20 13 -20
16 0 2 9 0 20 -6 11 -6 20 -13 20 -16z m390 15 c0 -5 -4 -7 -10 -4 -5 3 -16 3
-22 -2 -7 -4 -25 -6 -40 -4 -16 1 -28 -2 -28 -9 0 -7 -7 -7 -22 2 -22 12 -21
13 17 18 78 10 105 10 105 -1z m1250 1 c0 -5 -5 -10 -11 -10 -5 0 -7 5 -4 10
3 6 8 10 11 10 2 0 4 -4 4 -10z m-1812 -21 c-23 -21 -32 -24 -23 -9 3 6 -1 10
-10 10 -30 0 -7 15 24 16 l31 1 -22 -18z m723 6 c19 -8 27 -14 19 -14 -14 0
-72 28 -59 29 4 0 22 -7 40 -15z m-111 -5 c0 -5 -5 -10 -11 -10 -5 0 -7 5 -4
10 3 6 8 10 11 10 2 0 4 -4 4 -10z m-659 -17 c-11 -5 -11 -7 0 -14 10 -6 6 -9
-13 -9 -16 0 -28 4 -28 9 0 11 18 19 40 19 12 0 12 -1 1 -5z m629 -2 c0 -5 -7
-11 -15 -15 -15 -5 -20 5 -8 17 9 10 23 9 23 -2z m205 -1 c3 -5 2 -10 -4 -10
-5 0 -13 5 -16 10 -3 6 -2 10 4 10 5 0 13 -4 16 -10z m950 0 c3 -5 2 -10 -4
-10 -5 0 -13 5 -16 10 -3 6 -2 10 4 10 5 0 13 -4 16 -10z m175 0 c0 -5 -7 -10
-16 -10 -8 0 -12 5 -9 10 3 6 10 10 16 10 5 0 9 -4 9 -10z m-1852 -9 c11 -6
10 -10 -5 -16 -17 -7 -17 -8 2 -16 15 -7 10 -8 -18 -5 -20 3 -35 1 -33 -3 3
-4 -8 -5 -25 -3 -40 6 -37 22 4 20 18 -1 42 4 53 11 17 10 15 11 -11 6 -24 -4
-26 -3 -10 4 26 12 27 12 43 2z m682 -17 c0 -2 -7 -4 -15 -4 -8 0 -15 4 -15
10 0 5 7 7 15 4 8 -4 15 -8 15 -10z m95 6 c13 -6 15 -9 5 -9 -8 0 -22 4 -30 9
-18 12 -2 12 25 0z m-509 -21 c9 -15 -23 -10 -35 5 -10 12 -8 13 9 9 11 -3 23
-9 26 -14z m59 1 c3 -5 2 -10 -4 -10 -5 0 -13 5 -16 10 -3 6 -2 10 4 10 5 0
13 -4 16 -10z m540 -11 c22 -10 29 -16 15 -13 -38 10 -87 32 -70 32 8 0 33 -8
55 -19z m-154 -6 c13 -15 12 -15 -8 -4 -24 12 -29 21 -14 21 5 0 15 -7 22 -17z
m34 7 c3 -6 -1 -7 -9 -4 -18 7 -21 14 -7 14 6 0 13 -4 16 -10z m897 -22 c-9
-9 -12 -7 -12 12 0 19 3 21 12 12 9 -9 9 -15 0 -24z m-1602 13 c0 -5 9 -13 20
-16 37 -12 20 -21 -40 -20 -33 0 -60 3 -60 7 0 12 47 21 61 12 9 -5 10 -2 6 9
-3 10 -2 17 3 17 6 0 10 -4 10 -9z m825 -31 c3 -5 1 -10 -4 -10 -6 0 -11 5
-11 10 0 6 2 10 4 10 3 0 8 -4 11 -10z m-748 -40 c-13 -18 -15 -19 -21 -5 -11
29 -7 38 11 24 15 -12 16 -12 9 6 -5 15 -4 17 5 8 9 -9 8 -16 -4 -33z m-729
12 c2 -7 -2 -10 -12 -6 -9 3 -16 11 -16 16 0 13 23 5 28 -10z m1062 8 c0 -5
-7 -7 -15 -4 -8 4 -15 8 -15 10 0 2 7 4 15 4 8 0 15 -4 15 -10z m390 0 c0 -5
-4 -10 -10 -10 -5 0 -10 5 -10 10 0 6 5 10 10 10 6 0 10 -4 10 -10z m695 -10
c-35 -39 -77 -53 -170 -56 l-90 -2 80 7 c80 8 132 25 170 55 28 21 32 20 10
-4z m-458 -1 c15 -6 66 -19 113 -30 78 -17 80 -18 27 -13 -68 7 -225 54 -179
54 6 0 23 -5 39 -11z m527 -10 c-3 -5 -10 -7 -15 -3 -5 3 -7 10 -3 15 3 5 10
7 15 3 5 -3 7 -10 3 -15z m-1396 -12 c5 -24 -15 -21 -21 4 -3 13 -1 19 6 16 7
-2 13 -11 15 -20z m222 13 c0 -5 -2 -10 -4 -10 -3 0 -8 5 -11 10 -3 6 -1 10 4
10 6 0 11 -4 11 -10z m-915 -10 c8 -13 -5 -13 -25 0 -13 8 -13 10 2 10 9 0 20
-4 23 -10z m190 0 c3 -5 1 -10 -4 -10 -6 0 -11 5 -11 10 0 6 2 10 4 10 3 0 8
-4 11 -10z m780 -1 c11 -17 2 -18 -19 -3 -17 12 -17 14 -4 14 9 0 20 -5 23
-11z m-850 -16 c18 -14 18 -15 2 -9 -10 3 -25 6 -33 6 -9 0 -12 5 -9 10 8 14
16 12 40 -7z m120 7 c3 -6 -1 -7 -9 -4 -18 7 -21 14 -7 14 6 0 13 -4 16 -10z
m410 -13 c19 -4 19 -5 -1 -6 -12 0 -28 7 -35 17 -12 15 -12 16 1 6 8 -7 24
-14 35 -17z m822 17 c-3 -3 -12 -4 -19 -1 -8 3 -5 6 6 6 11 1 17 -2 13 -5z
m-1430 -10 c-3 -3 -12 -4 -19 -1 -8 3 -5 6 6 6 11 1 17 -2 13 -5z m1073 -24
c0 -5 -7 -10 -16 -10 -8 0 -12 5 -9 10 3 6 10 10 16 10 5 0 9 -4 9 -10z m490
0 c0 -5 -4 -10 -10 -10 -5 0 -10 5 -10 10 0 6 5 10 10 10 6 0 10 -4 10 -10z
m-950 -10 c0 -5 -4 -10 -10 -10 -5 0 -10 5 -10 10 0 6 5 10 10 10 6 0 10 -4
10 -10z m110 -2 c0 -11 -12 -10 -30 2 -12 7 -10 9 8 7 12 0 22 -5 22 -9z m910
-8 c0 -5 -4 -10 -10 -10 -5 0 -10 5 -10 10 0 6 5 10 10 10 6 0 10 -4 10 -10z
m-940 -10 c0 -5 -4 -10 -10 -10 -5 0 -10 5 -10 10 0 6 5 10 10 10 6 0 10 -4
10 -10z m435 0 c3 -5 1 -10 -4 -10 -6 0 -11 5 -11 10 0 6 2 10 4 10 3 0 8 -4
11 -10z m795 6 c0 -2 -7 -6 -15 -10 -8 -3 -15 -1 -15 4 0 6 7 10 15 10 8 0 15
-2 15 -4z m-213 -12 c-3 -3 -12 -4 -19 -1 -8 3 -5 6 6 6 11 1 17 -2 13 -5z
m-1537 -14 c0 -5 -7 -7 -15 -4 -8 4 -15 8 -15 10 0 2 7 4 15 4 8 0 15 -4 15
-10z m-144 -10 c15 -6 24 -13 22 -16 -3 -3 -21 2 -39 10 -39 16 -24 21 17 6z
m199 0 c3 -5 1 -10 -4 -10 -6 0 -11 5 -11 10 0 6 2 10 4 10 3 0 8 -4 11 -10z
m435 0 c0 -5 -5 -10 -11 -10 -5 0 -7 5 -4 10 3 6 8 10 11 10 2 0 4 -4 4 -10z
m520 0 c0 -5 -2 -10 -4 -10 -3 0 -8 5 -11 10 -3 6 -1 10 4 10 6 0 11 -4 11
-10z m67 -36 c-3 -3 -12 -4 -19 -1 -8 3 -5 6 6 6 11 1 17 -2 13 -5z m-1154
-21 c-7 -2 -19 -2 -25 0 -7 3 -2 5 12 5 14 0 19 -2 13 -5z m142 -13 c3 -5 -1
-10 -9 -10 -8 0 -18 5 -21 10 -3 6 1 10 9 10 8 0 18 -4 21 -10z m469 -16 c6
-15 4 -15 -11 -3 -10 7 -20 15 -22 16 -2 2 3 3 11 3 9 0 19 -7 22 -16z m671
-4 c8 -13 -5 -13 -25 0 -13 8 -13 10 2 10 9 0 20 -4 23 -10z m-1260 -20 c3 -5
-1 -10 -9 -10 -9 0 -16 5 -16 10 0 6 4 10 9 10 6 0 13 -4 16 -10z m645 0 c0
-5 -2 -10 -4 -10 -3 0 -8 5 -11 10 -3 6 -1 10 4 10 6 0 11 -4 11 -10z m665 0
c3 -5 1 -10 -4 -10 -6 0 -11 5 -11 10 0 6 2 10 4 10 3 0 8 -4 11 -10z m65 -30
c0 -5 -2 -10 -4 -10 -3 0 -8 5 -11 10 -3 6 -1 10 4 10 6 0 11 -4 11 -10z m860
-21 c0 -5 -4 -9 -10 -9 -5 0 -10 7 -10 16 0 8 5 12 10 9 6 -3 10 -10 10 -16z
m-1623 5 c-3 -3 -12 -4 -19 -1 -8 3 -5 6 6 6 11 1 17 -2 13 -5z m53 -34 c0 -5
-2 -10 -4 -10 -3 0 -8 5 -11 10 -3 6 -1 10 4 10 6 0 11 -4 11 -10z m835 0 c3
-5 1 -10 -4 -10 -6 0 -11 5 -11 10 0 6 2 10 4 10 3 0 8 -4 11 -10z m690 -40
c3 -6 -4 -14 -17 -19 -29 -11 -35 -6 -18 14 14 17 26 19 35 5z m-65 -45 c0 -8
-7 -15 -15 -15 -13 0 -14 3 -3 15 16 18 18 18 18 0z m-325 -5 c-3 -5 -10 -10
-16 -10 -5 0 -9 5 -9 10 0 6 7 10 16 10 8 0 12 -4 9 -10z m-4195 -550 c0 -5
-4 -10 -10 -10 -5 0 -10 5 -10 10 0 6 5 10 10 10 6 0 10 -4 10 -10z m-45 -20
c3 -5 1 -10 -4 -10 -6 0 -11 5 -11 10 0 6 2 10 4 10 3 0 8 -4 11 -10z m-175
-70 c0 -5 -17 -10 -37 -9 -31 0 -34 2 -18 9 28 12 55 12 55 0z m827 -491 c2
-17 -1 -18 -13 -9 -17 15 -18 30 -1 30 7 0 13 -9 14 -21z m1968 11 c3 -5 1
-10 -4 -10 -6 0 -11 5 -11 10 0 6 2 10 4 10 3 0 8 -4 11 -10z m-2035 -20 c0
-5 -5 -10 -11 -10 -5 0 -7 5 -4 10 3 6 8 10 11 10 2 0 4 -4 4 -10z m2147 4
c-3 -3 -12 -4 -19 -1 -8 3 -5 6 6 6 11 1 17 -2 13 -5z m-510 -20 c-3 -3 -12
-4 -19 -1 -8 3 -5 6 6 6 11 1 17 -2 13 -5z m-1627 -14 c0 -5 -7 -7 -15 -4 -8
4 -15 8 -15 10 0 2 7 4 15 4 8 0 15 -4 15 -10z m2137 4 c-3 -3 -12 -4 -19 -1
-8 3 -5 6 6 6 11 1 17 -2 13 -5z m-2173 -35 c-21 -23 -25 -21 -18 8 4 14 11
20 20 16 13 -5 12 -8 -2 -24z m-106 -13 c-7 -8 -15 -12 -17 -11 -5 6 10 25 20
25 5 0 4 -6 -3 -14z"/>
<path d="M4359 6258 c-8 -27 -3 -33 23 -35 17 -1 26 2 23 8 -4 5 -11 7 -16 4
-5 -4 -9 1 -9 9 0 13 -18 24 -21 14z"/>
<path d="M4530 6181 c0 -12 63 -21 75 -10 5 6 1 9 -10 10 -11 0 -30 2 -42 5
-13 2 -23 0 -23 -5z"/>
<path d="M48 5923 c6 -2 18 -2 25 0 6 3 1 5 -13 5 -14 0 -19 -2 -12 -5z"/>
<path d="M1290 4621 c-12 -24 -13 -34 -1 -27 5 4 12 0 14 -6 3 -7 6 2 6 20 1
37 -4 40 -19 13z"/>
<path d="M1311 4534 c0 -11 3 -14 6 -6 3 7 2 16 -1 19 -3 4 -6 -2 -5 -13z"/>
<path d="M2328 3623 c6 -2 18 -2 25 0 6 3 1 5 -13 5 -14 0 -19 -2 -12 -5z"/>
<path d="M2384 3619 c-3 -5 6 -9 20 -9 31 0 34 6 6 13 -11 3 -23 1 -26 -4z"/>
<path d="M2488 3603 c7 -3 16 -2 19 1 4 3 -2 6 -13 5 -11 0 -14 -3 -6 -6z"/>
<path d="M2580 3600 c20 -13 33 -13 25 0 -3 6 -14 10 -23 10 -15 0 -15 -2 -2
-10z"/>
<path d="M2780 3580 c-13 -8 -12 -10 3 -10 9 0 17 5 17 10 0 12 -1 12 -20 0z"/>
<path d="M987 2733 c-12 -11 -8 -23 8 -23 8 0 15 7 15 15 0 16 -12 20 -23 8z"/>
</g>
</svg>
